<svg aria-hidden="true" style="position: absolute; width: 0; height: 0; overflow: hidden;" version="1.1" xmlns="http://www.w3.org/2000/svg" xmlns:xlink="http://www.w3.org/1999/xlink">
<defs>

<symbol id="icon-mobile2" viewBox="0 0 32 32">
<path d="M24 0h-18c-1.1 0-2 0.9-2 2v28c0 1.1 0.9 2 2 2h18c1.1 0 2-0.9 2-2v-28c0-1.1-0.9-2-2-2zM15 30.556c-0.859 0-1.556-0.697-1.556-1.556s0.697-1.556 1.556-1.556 1.556 0.697 1.556 1.556-0.697 1.556-1.556 1.556zM24 26h-18v-22h18v22z"></path>
</symbol>

<symbol id="icon-menu" viewBox="0 0 24 24">
<path d="M3 6h18v2.016h-18v-2.016zM3 12.984v-1.969h18v1.969h-18zM3 18v-2.016h18v2.016h-18z"></path>
</symbol>

<symbol id="icon-magnet1" viewBox="0 0 32 32">
<path d="M28 0h-8l2 18c0 3.314-2.686 6-6 6s-6-2.686-6-6l2-18h-8l-2 18c0 7.732 6.268 14 14 14s14-6.268 14-14l-2-18zM24.309 26.309c-2.219 2.219-5.17 3.441-8.309 3.441s-6.089-1.222-8.309-3.441c-2.191-2.191-3.41-5.095-3.441-8.189l1.128-10.151h3.472l-1.101 9.907v0.125c0 2.204 0.858 4.275 2.416 5.834s3.63 2.416 5.834 2.416 4.275-0.858 5.834-2.416c1.558-1.558 2.416-3.63 2.416-5.834v-0.125l-0.014-0.124-1.087-9.783h3.472l1.128 10.151c-0.031 3.094-1.25 5.998-3.441 8.189z"></path>
</symbol>

<symbol id="icon-bullhorn" viewBox="0 0 32 32">
<path d="M32 13.414c0-6.279-1.837-11.373-4.109-11.413 0.009-0 0.018-0.001 0.027-0.001h-2.592c0 0-6.088 4.573-14.851 6.367-0.268 1.415-0.438 3.102-0.438 5.047s0.171 3.631 0.438 5.047c8.763 1.794 14.851 6.367 14.851 6.367h2.592c-0.009 0-0.018-0.001-0.027-0.001 2.272-0.040 4.109-5.134 4.109-11.413zM27.026 23.102c-0.293 0-0.61-0.304-0.773-0.486-0.395-0.439-0.775-1.124-1.1-1.979-0.727-1.913-1.127-4.478-1.127-7.223s0.4-5.309 1.127-7.223c0.325-0.855 0.705-1.54 1.1-1.979 0.163-0.182 0.48-0.486 0.773-0.486s0.61 0.304 0.773 0.486c0.395 0.439 0.775 1.124 1.1 1.979 0.727 1.913 1.127 4.479 1.127 7.223s-0.4 5.309-1.127 7.223c-0.325 0.855-0.705 1.54-1.1 1.979-0.163 0.181-0.48 0.486-0.773 0.486zM7.869 13.414c0-1.623 0.119-3.201 0.345-4.659-1.48 0.205-2.779 0.323-4.386 0.323-2.096 0-2.096 0-2.096 0l-1.733 2.959v2.755l1.733 2.959c0 0 0 0 2.096 0 1.606 0 2.905 0.118 4.386 0.323-0.226-1.458-0.345-3.036-0.345-4.659zM11.505 20.068l-4-0.766 2.558 10.048c0.132 0.52 0.648 0.782 1.146 0.583l3.705-1.483c0.498-0.199 0.698-0.749 0.444-1.221l-3.853-7.161zM27.026 17.148c-0.113 0-0.235-0.117-0.298-0.187-0.152-0.169-0.299-0.433-0.424-0.763-0.28-0.738-0.434-1.726-0.434-2.784s0.154-2.046 0.434-2.784c0.125-0.33 0.272-0.593 0.424-0.763 0.063-0.070 0.185-0.187 0.298-0.187s0.235 0.117 0.298 0.187c0.152 0.169 0.299 0.433 0.424 0.763 0.28 0.737 0.434 1.726 0.434 2.784s-0.154 2.046-0.434 2.784c-0.125 0.33-0.272 0.593-0.424 0.763-0.063 0.070-0.185 0.187-0.298 0.187z"></path>
</symbol>

<symbol id="icon-pencil" viewBox="0 0 32 32">
<path d="M27 0c2.761 0 5 2.239 5 5 0 1.126-0.372 2.164-1 3l-2 2-7-7 2-2c0.836-0.628 1.874-1 3-1zM2 23l-2 9 9-2 18.5-18.5-7-7-18.5 18.5zM22.362 11.362l-14 14-1.724-1.724 14-14 1.724 1.724z"></path>
</symbol>

<symbol id="icon-cog" viewBox="0 0 20 20">
<path d="M16.783 10c0-1.049 0.646-1.875 1.617-2.443-0.176-0.584-0.407-1.145-0.692-1.672-1.089 0.285-1.97-0.141-2.711-0.883-0.741-0.74-0.968-1.621-0.683-2.711-0.527-0.285-1.088-0.518-1.672-0.691-0.568 0.97-1.595 1.615-2.642 1.615-1.048 0-2.074-0.645-2.643-1.615-0.585 0.173-1.144 0.406-1.671 0.691 0.285 1.090 0.059 1.971-0.684 2.711-0.74 0.742-1.621 1.168-2.711 0.883-0.285 0.527-0.517 1.088-0.691 1.672 0.97 0.568 1.615 1.394 1.615 2.443 0 1.047-0.645 2.074-1.615 2.643 0.175 0.584 0.406 1.144 0.691 1.672 1.090-0.285 1.971-0.059 2.711 0.682s0.969 1.623 0.684 2.711c0.527 0.285 1.087 0.518 1.672 0.693 0.568-0.973 1.595-1.617 2.643-1.617 1.047 0 2.074 0.645 2.643 1.617 0.584-0.176 1.144-0.408 1.672-0.693-0.285-1.088-0.059-1.969 0.683-2.711 0.741-0.74 1.622-1.166 2.711-0.883 0.285-0.527 0.517-1.086 0.692-1.672-0.973-0.569-1.619-1.395-1.619-2.442zM10 13.652c-2.018 0-3.653-1.635-3.653-3.652 0-2.018 1.636-3.654 3.653-3.654s3.652 1.637 3.652 3.654c0 2.018-1.634 3.652-3.652 3.652z"></path>
</symbol>

<symbol id="icon-vector" viewBox="0 0 20 20">
<path d="M12 4h4.27c0.352-0.602 0.996-1 1.732-1 1.105 0 2 0.895 2 2s-0.895 2-2 2c-0.736 0-1.38-0.398-1.727-0.991l-0.005-0.009h-2.14c2.698 1.415 4.569 4.087 4.838 7.217l0.002 0.033c0.621 0.347 1.035 1.001 1.035 1.752 0 1.105-0.895 2-2 2s-2-0.895-2-2c0-0.722 0.383-1.355 0.957-1.707l0.009-0.005c-0.3-2.857-2.279-5.182-4.92-5.987l-0.050-0.013v0.71h-4v-0.71c-2.687 0.821-4.662 3.146-4.957 5.97l-0.003 0.030c0.583 0.357 0.965 0.989 0.965 1.712 0 1.105-0.895 2-2 2s-2-0.895-2-2c0-0.75 0.413-1.404 1.025-1.746l0.010-0.005c0.267-3.16 2.13-5.831 4.771-7.226l0.049-0.024h-2.13c-0.352 0.602-0.996 1-1.732 1-1.105 0-2-0.895-2-2s0.895-2 2-2c0.736 0 1.38 0.398 1.727 0.991l0.005 0.009h4.27v-1h4v1z"></path>
</symbol>

<symbol id="icon-paint" viewBox="0 0 32 32">
<path d="M26 13h-10v2h-2v-3h12v-6h-1v3c0 0.552-0.448 1-1 1h-18c-0.553 0-1-0.448-1-1v-4c0-0.553 0.447-1 1-1h18c0.552 0 1 0.447 1 1h2v8h-1zM23 5h-16v1h16v-1zM17 26c0 1.104-0.896 2-2 2s-2-0.896-2-2v-10h4v10zM15 24.583c-0.553 0-1 0.448-1 1 0 0.553 0.447 1 1 1 0.552 0 1-0.447 1-1 0-0.552-0.448-1-1-1z"></path>
</symbol>

<symbol id="icon-thumb-up" viewBox="0 0 32 32">
<path d="M11 13h-6.002c-1.104 0-1.998 0.89-1.998 2v13c0 1.105 0.887 2 1.998 2h19.494c1.385 0 2.508-1.11 2.508-2.5 0-0.563-0.185-1.082-0.499-1.5 1.381-0.005 2.499-1.113 2.499-2.5 0-0.636-0.236-1.216-0.628-1.657 0.951-0.353 1.628-1.263 1.628-2.343 0-0.636-0.236-1.216-0.628-1.657 0.951-0.353 1.628-1.263 1.628-2.343 0-1.381-1.115-2.5-2.508-2.5h-5.992c1.049-5.017 0.547-11-3.5-11s-1.934 4.788-3.5 7.763c-1.566 2.975-4.5 3.237-4.5 3.237v0 0zM4.991 14h5.009v15h-5.009c-0.54 0-0.991-0.451-0.991-1.007v-12.985c0-0.559 0.444-1.007 0.991-1.007zM7 27c0.552 0 1-0.448 1-1s-0.448-1-1-1c-0.552 0-1 0.448-1 1s0.448 1 1 1v0 0zM21.3 14h7.207c0.829 0 1.493 0.672 1.493 1.5 0 0.834-0.668 1.5-1.493 1.5h-3.507v1h2.507c0.829 0 1.493 0.672 1.493 1.5 0 0.834-0.668 1.5-1.493 1.5h-3.507v1h2.507c0.829 0 1.493 0.672 1.493 1.5 0 0.834-0.668 1.5-1.493 1.5h-3.507v1h1.498c0.831 0 1.502 0.672 1.502 1.5 0 0.834-0.672 1.5-1.502 1.5h-13.498c0 0 0-13 0-15 1.5 0 2.806-1 2.806-1 0.91-0.568 1.896-1.428 2.565-2.699 1.566-2.975-0.242-7.301 2.629-7.301 2.96 0 3.448 4.853 2.501 10 0 0-0.201 1-0.201 1v0 0z"></path>
</symbol>


<symbol id="icon-mail" viewBox="0 0 32 32">
<path d="M28 5h-24c-2.209 0-4 1.792-4 4v13c0 2.209 1.791 4 4 4h24c2.209 0 4-1.791 4-4v-13c0-2.208-1.791-4-4-4zM2 10.25l6.999 5.25-6.999 5.25v-10.5zM30 22c0 1.104-0.898 2-2 2h-24c-1.103 0-2-0.896-2-2l7.832-5.875 4.368 3.277c0.533 0.398 1.166 0.6 1.8 0.6 0.633 0 1.266-0.201 1.799-0.6l4.369-3.277 7.832 5.875zM30 20.75l-7-5.25 7-5.25v10.5zM17.199 18.602c-0.349 0.262-0.763 0.4-1.199 0.4s-0.851-0.139-1.2-0.4l-12.8-9.602c0-1.103 0.897-2 2-2h24c1.102 0 2 0.897 2 2l-12.801 9.602z"></path>
</symbol>


<symbol id="icon-phone" viewBox="0 0 32 32">
<path d="M22 20c-2 2-2 4-4 4s-4-2-6-4-4-4-4-6 2-2 4-4-4-8-6-8-6 6-6 6c0 4 4.109 12.109 8 16s12 8 16 8c0 0 6-4 6-6s-6-8-8-6z"></path>
</symbol>



<symbol id="icon-message" viewBox="0 0 20 20">
<path d="M18 6v7c0 1.1-0.9 2-2 2h-4v3l-4-3h-4c-1.101 0-2-0.9-2-2v-7c0-1.1 0.899-2 2-2h12c1.1 0 2 0.9 2 2z"></path>
</symbol>


</defs>
</svg>
